<?xml version="1.0" standalone="no"?><svg xmlns="http://www.w3.org/2000/svg" viewBox="0 0 1440 320"><path fill="#FF0000" fill-opacity="1" d="M0,32L34.3,58.7C68.6,85,137,139,206,149.3C274.3,160,343,128,411,144C480,160,549,224,617,234.7C685.7,245,754,203,823,202.7C891.4,203,960,245,1029,229.3C1097.1,213,1166,139,1234,112C1302.9,85,1371,107,1406,117.3L1440,128L1440,320L1405.7,320C1371.4,320,1303,320,1234,320C1165.7,320,1097,320,1029,320C960,320,891,320,823,320C754.3,320,686,320,617,320C548.6,320,480,320,411,320C342.9,320,274,320,206,320C137.1,320,69,320,34,320L0,320Z"></path></svg>